<?xml version="1.0" standalone="no"?>
<!DOCTYPE svg PUBLIC "-//W3C//DTD SVG 20010904//EN"
 "http://www.w3.org/TR/2001/REC-SVG-20010904/DTD/svg10.dtd">
<svg 
    version="1.0"
    xmlns="http://www.w3.org/2000/svg"
    width="500pt" height="700pt" 
    viewBox="0 0 700 400"
    preserveAspectRatio="xMidYMid meet" 
    transform="rotate(270 0 0)">

<g transform="translate(0.000000,358.000000) scale(0.1, -0.1)" fill="#0088CC" stroke="none">
fill="#0088CC" stroke="none">
<path d="M1715 2514 c-11 -3 -112 -32 -225 -64 -113 -32 -249 -68 -303 -80
-79 -18 -101 -26 -114 -46 -12 -19 -13 -30 -5 -52 6 -15 13 -46 15 -70 14
-118 165 -189 291 -137 37 16 38 16 31 -2 -23 -53 -44 -121 -45 -143 0 -37
-11 -70 -22 -70 -5 0 -20 13 -34 29 -48 57 -127 63 -179 15 l-26 -24 -67 60
c-40 37 -101 78 -151 103 l-84 42 -122 0 -122 0 -88 -44 c-65 -32 -105 -61
-154 -110 -91 -92 -122 -156 -129 -271 -4 -81 -2 -99 28 -192 40 -129 63 -169
137 -239 102 -98 214 -139 378 -139 180 0 374 62 433 137 15 19 34 44 43 56
16 20 17 20 88 -40 90 -76 162 -115 275 -147 164 -48 305 -32 504 58 115 52
192 69 192 43 0 -8 12 -29 26 -46 45 -54 122 -51 176 6 19 20 23 36 24 91 l1
67 41 17 c22 10 61 21 86 24 l46 7 0 -47 c0 -90 60 -163 157 -192 75 -23 173
-28 213 -13 44 18 151 17 209 -1 35 -11 58 -12 125 -2 151 22 226 84 234 193
l5 61 44 -6 c24 -3 63 -14 85 -24 l41 -17 1 -67 c1 -55 5 -71 24 -91 54 -57
131 -60 176 -6 14 17 26 38 26 46 0 26 73 10 190 -43 204 -90 342 -106 506
-58 114 33 187 72 278 149 l72 63 29 -45 c51 -82 138 -128 295 -157 230 -44
424 1 549 127 72 72 86 97 127 221 34 102 36 117 32 201 -6 116 -37 183 -129
276 -49 49 -87 77 -154 110 l-88 44 -122 0 -121 0 -85 -42 c-50 -25 -111 -66
-151 -103 l-67 -60 -27 25 c-52 48 -142 39 -179 -19 -30 -45 -54 -26 -55 44
-1 22 -22 90 -45 143 -7 17 -6 18 30 3 51 -22 140 -20 191 3 54 24 94 78 101
133 2 24 9 55 15 70 8 22 7 33 -5 52 -13 20 -35 28 -114 46 -54 12 -192 49
-308 83 l-210 62 -145 0 c-126 0 -155 -3 -218 -24 -92 -30 -180 -87 -253 -162
-59 -62 -128 -182 -149 -259 -11 -42 -13 -43 -26 -25 -43 62 -120 105 -186
105 -10 0 -18 7 -18 18 0 103 -92 192 -199 192 -44 0 -52 3 -72 31 -66 93
-252 92 -321 -1 -19 -26 -28 -30 -70 -30 -101 0 -176 -65 -193 -167 -6 -36
-11 -43 -29 -43 -51 0 -116 -32 -155 -77 l-40 -44 -11 43 c-21 76 -90 196
-149 256 -72 76 -150 127 -242 159 -64 23 -93 27 -209 29 -74 2 -144 1 -155
-2z m280 -29 c221 -47 401 -222 460 -450 9 -33 19 -111 22 -173 l6 -113 24 41
c13 22 29 40 34 40 6 0 0 14 -12 31 -28 40 -36 113 -16 160 24 59 78 92 153
97 l64 4 0 45 c0 100 69 168 170 168 53 0 59 3 91 39 78 90 200 90 278 0 32
-36 38 -39 90 -39 101 0 171 -70 171 -168 l0 -45 64 -4 c75 -5 129 -38 153
-97 20 -47 12 -120 -16 -160 -12 -17 -18 -31 -12 -31 5 0 21 -18 34 -40 l24
-41 6 113 c12 208 63 334 188 460 118 120 261 178 439 178 91 0 158 -14 360
-75 85 -25 196 -55 245 -66 50 -11 105 -24 123 -30 l33 -11 -7 -56 c-8 -73
-26 -115 -59 -144 -60 -53 -142 -61 -224 -23 -68 32 -84 22 -54 -32 31 -56 53
-139 53 -201 0 -45 3 -53 16 -48 9 3 26 9 38 12 11 3 29 18 38 34 34 59 122
55 164 -7 l20 -30 45 47 c224 236 498 252 720 42 91 -85 129 -160 136 -268 4
-59 1 -90 -12 -124 -9 -25 -22 -65 -29 -90 -40 -142 -142 -247 -292 -301 -122
-44 -399 -23 -522 40 -46 23 -113 94 -131 138 l-13 32 -68 -58 c-91 -79 -144
-114 -218 -145 -189 -80 -339 -73 -553 24 -82 37 -131 53 -175 57 l-60 5 -10
-33 c-7 -25 -20 -39 -46 -52 -33 -16 -40 -17 -73 -3 -56 24 -77 89 -50 158 9
22 -73 64 -147 76 -79 12 -87 8 -81 -37 10 -72 -30 -141 -101 -178 -79 -41
-213 -50 -262 -18 -18 11 -28 12 -53 2 -24 -9 -38 -9 -62 0 -25 10 -35 9 -53
-2 -54 -36 -195 -21 -280 29 -57 33 -91 98 -84 161 6 52 -4 57 -83 43 -74 -13
-152 -54 -145 -76 16 -53 16 -72 2 -106 -11 -26 -26 -41 -51 -52 -33 -14 -40
-13 -73 3 -26 13 -39 27 -46 52 l-10 33 -60 -5 c-44 -4 -93 -20 -173 -56 -217
-99 -365 -105 -555 -25 -74 31 -127 66 -218 145 l-68 58 -17 -39 c-23 -51 -89
-114 -146 -139 -130 -58 -388 -74 -503 -32 -150 54 -252 159 -292 301 -7 25
-20 65 -29 90 -13 34 -16 65 -12 124 7 108 45 183 136 268 147 140 324 182
494 118 67 -25 201 -123 242 -175 l27 -37 19 31 c23 37 48 51 94 51 35 0 85
-35 85 -58 0 -6 11 -13 24 -16 13 -3 31 -9 40 -12 13 -5 16 3 16 48 0 62 22
145 53 201 30 54 14 64 -54 32 -61 -28 -120 -32 -170 -11 -71 30 -101 78 -113
178 l-7 56 33 11 c18 6 74 19 123 30 50 11 160 41 245 66 85 26 182 53 215 60
81 18 205 18 290 0z"/>
<path d="M1818 2463 c18 -2 45 -2 60 0 15 2 0 4 -33 4 -33 0 -45 -2 -27 -4z"/>
<path d="M4377 2463 c18 -2 50 -2 70 0 21 2 7 4 -32 4 -38 0 -55 -2 -38 -4z"/>
<path d="M1755 2392 c-72 -25 -136 -73 -164 -123 l-24 -42 34 25 c72 54 145
79 270 93 62 7 230 -15 298 -39 53 -19 56 -20 42 -2 -18 21 -113 64 -194 86
-88 25 -194 25 -262 2z"/>
<path d="M3113 2403 c9 -2 25 -2 35 0 9 3 1 5 -18 5 -19 0 -27 -2 -17 -5z"/>
<path d="M4230 2387 c-78 -24 -174 -69 -185 -87 -8 -13 -5 -13 46 6 68 24 236
46 298 39 124 -14 198 -39 269 -92 l34 -25 -15 29 c-24 45 -76 91 -137 120
-79 38 -205 42 -310 10z"/>
<path d="M3180 2396 c0 -2 7 -7 16 -10 8 -3 12 -2 9 4 -6 10 -25 14 -25 6z"/>
<path d="M3019 2363 c-13 -16 -12 -17 4 -4 16 13 21 21 13 21 -2 0 -10 -8 -17
-17z"/>
<path d="M3220 2376 c0 -2 8 -10 18 -17 15 -13 16 -12 3 4 -13 16 -21 21 -21
13z"/>
<path d="M2190 2366 c0 -2 8 -10 18 -17 15 -13 16 -12 3 4 -13 16 -21 21 -21
13z"/>
<path d="M4049 2353 c-13 -16 -12 -17 4 -4 16 13 21 21 13 21 -2 0 -10 -8 -17
-17z"/>
<path d="M3086 2330 c-41 -49 -49 -99 -42 -250 8 -190 51 -380 86 -380 51 0
114 435 81 557 -14 50 -55 103 -81 103 -10 0 -30 -14 -44 -30z"/>
<path d="M2260 2305 c19 -19 36 -35 39 -35 3 0 -10 16 -29 35 -19 19 -36 35
-39 35 -3 0 10 -16 29 -35z"/>
<path d="M2995 2329 c-4 -6 -5 -12 -2 -15 2 -3 7 2 10 11 7 17 1 20 -8 4z"/>
<path d="M3256 2327 c3 -10 9 -15 12 -12 3 3 0 11 -7 18 -10 9 -11 8 -5 -6z"/>
<path d="M3989 2303 l-34 -38 38 34 c20 19 37 36 37 38 0 8 -8 0 -41 -34z"/>
<path d="M2878 2303 c6 -2 18 -2 25 0 6 3 1 5 -13 5 -14 0 -19 -2 -12 -5z"/>
<path d="M3358 2303 c6 -2 18 -2 25 0 6 3 1 5 -13 5 -14 0 -19 -2 -12 -5z"/>
<path d="M1935 2276 c-33 -8 -73 -19 -88 -25 -43 -17 -68 -14 -74 9 -5 20 -23
28 -23 12 0 -5 -14 -28 -30 -51 -25 -34 -34 -40 -48 -32 -14 8 -25 1 -58 -35
-65 -70 -109 -55 -86 30 9 33 8 42 -4 49 -8 4 -14 15 -14 22 0 19 -16 19 -23
1 -8 -21 -91 -75 -125 -82 -37 -7 -111 13 -119 32 -3 8 4 25 15 37 l21 22 -39
-3 c-22 -2 -53 1 -69 6 -26 9 -30 8 -35 -12 -7 -30 10 -89 32 -109 60 -54 147
-57 226 -7 44 28 46 29 56 10 6 -12 21 -20 35 -20 28 0 32 -12 11 -29 -7 -6
-27 -42 -45 -80 -41 -89 -50 -178 -27 -274 41 -174 142 -276 320 -322 32 -8
61 -16 63 -18 2 -2 -2 -18 -8 -35 -10 -28 -14 -31 -37 -25 -48 12 -78 7 -117
-20 -62 -42 -120 -38 -232 17 -93 45 -173 107 -173 132 0 21 27 28 56 16 23
-11 24 -10 24 22 0 19 6 37 13 40 6 3 0 3 -14 0 -19 -4 -35 2 -58 22 -30 25
-33 25 -50 10 -10 -9 -32 -16 -50 -16 -24 0 -34 6 -43 25 -10 22 -8 30 11 55
l22 30 -24 0 c-41 0 -78 66 -47 85 17 10 12 21 -36 74 -61 68 -159 137 -231
163 -78 29 -196 29 -276 0 -61 -22 -166 -91 -207 -138 -16 -17 -7 -12 25 14
74 61 109 72 223 72 156 0 275 -41 360 -123 63 -60 82 -103 82 -182 0 -56 4
-69 24 -90 13 -13 36 -27 50 -31 31 -7 32 -15 7 -38 -13 -11 -31 -16 -53 -14
-32 3 -33 2 -32 -32 0 -19 4 -47 8 -62 8 -26 6 -28 -23 -28 -40 0 -87 24 -102
51 -9 17 -7 42 7 110 10 49 14 92 9 96 -4 5 -10 1 -13 -7 -5 -14 -38 -48 -75
-77 -8 -7 -26 -15 -40 -18 -22 -6 -24 -11 -20 -44 5 -33 1 -41 -31 -69 -28
-25 -46 -32 -77 -32 -79 0 -130 50 -109 105 9 23 7 25 -16 25 -62 0 -114 41
-114 90 0 59 90 130 146 116 25 -7 25 -6 10 16 -21 30 -20 65 1 72 10 3 -8 4
-41 1 -83 -5 -129 -38 -167 -118 -51 -109 -36 -181 55 -265 181 -165 501 -189
652 -50 24 22 49 55 56 74 15 43 28 44 28 2 -1 -78 -86 -162 -196 -194 -35
-10 -82 -14 -133 -12 -67 2 -81 0 -90 -14 -12 -20 -46 -23 -85 -8 -16 6 -27 6
-31 0 -10 -16 -53 -11 -93 9 -82 42 -161 112 -213 189 -38 56 -50 69 -45 47
27 -112 109 -208 226 -264 l75 -36 160 1 c147 0 167 2 244 28 97 32 155 81
187 159 10 26 25 47 32 47 7 0 37 -22 65 -48 122 -113 187 -153 317 -193 91
-28 204 -30 299 -5 35 9 115 39 178 67 99 44 122 50 179 50 36 0 71 -5 79 -11
9 -8 15 -8 20 0 4 6 15 8 26 5 25 -8 24 10 -2 36 -18 18 -29 20 -65 15 -46 -6
-58 6 -32 32 9 9 7 12 -13 13 -47 2 -65 -3 -196 -57 -153 -63 -247 -89 -358
-98 -104 -9 -175 9 -279 72 -77 46 -171 120 -163 129 3 2 39 -18 81 -46 152
-99 247 -133 315 -113 90 28 131 76 223 264 13 26 28 48 35 48 26 0 43 -44 44
-115 l0 -70 19 66 c11 36 28 89 40 118 11 29 16 50 11 47 -14 -9 -65 38 -99
89 l-29 45 -7 -51 c-9 -65 -29 -96 -71 -108 -47 -13 -82 -3 -110 31 -33 39
-31 76 6 128 27 37 28 40 8 26 -51 -35 -155 -8 -180 48 -30 65 31 152 100 143
20 -2 44 -7 55 -12 16 -7 15 -2 -8 37 -33 57 -34 101 -1 133 31 32 91 34 127
5 27 -21 58 -77 58 -104 0 -20 -33 -21 -50 -1 -7 8 -19 15 -26 15 -19 0 -46
-44 -38 -64 4 -12 1 -16 -14 -16 -12 0 -25 -7 -30 -16 -5 -9 -32 -18 -70 -24
-69 -9 -82 -15 -82 -35 0 -23 15 -26 68 -14 64 15 91 8 148 -42 40 -34 52 -40
78 -35 17 3 40 18 51 32 11 14 41 48 68 75 64 66 63 118 -2 84 -42 -21 -56
-19 -70 11 -10 22 -9 30 5 45 48 53 154 -6 154 -85 0 -31 -7 -46 -38 -76 l-37
-38 32 -11 c18 -7 47 -24 63 -38 30 -25 30 -26 14 -51 -30 -46 -56 -92 -52
-92 3 0 26 34 52 75 26 41 51 75 55 75 14 0 20 -161 9 -215 -6 -27 -19 -67
-30 -89 l-20 -39 29 7 c59 15 93 69 93 148 0 56 -20 98 -46 98 -9 0 -14 11
-14 31 0 27 3 30 23 23 53 -17 87 -53 87 -91 0 -11 7 -28 16 -39 8 -10 12 -12
8 -5 -4 8 -8 39 -9 68 -3 69 -33 115 -125 188 -38 31 -70 62 -70 69 0 8 16 16
41 19 22 3 44 8 47 12 10 10 -19 24 -67 31 -70 11 -110 68 -48 69 14 1 29 4
33 8 23 23 62 3 171 -85 39 -32 74 -55 77 -50 3 4 -5 27 -17 51 -20 40 -21 44
-4 56 9 6 17 19 17 28 0 12 -7 15 -33 10 -24 -3 -39 0 -51 12 -10 11 -26 15
-41 12 -35 -6 -54 19 -29 38 18 15 18 16 -4 35 -13 11 -39 22 -57 26 -47 9
-63 29 -41 53 10 11 13 21 9 24 -22 14 -114 15 -168 3z m143 -105 c39 -27 41
-41 7 -41 -14 0 -48 -12 -75 -26 -38 -20 -58 -25 -83 -20 -17 4 -49 10 -69 13
-36 5 -54 23 -23 23 8 0 33 19 55 41 40 40 42 41 99 37 38 -3 68 -11 89 -27z
m-552 -186 c-27 -107 -11 -229 42 -315 33 -53 119 -125 197 -165 31 -15 58
-31 60 -36 10 -15 -34 -20 -77 -8 -104 28 -200 105 -245 198 -25 50 -28 67
-28 156 0 73 5 113 18 148 19 49 44 66 33 22z m349 -90 c33 -32 31 -41 -7 -43
-18 0 -46 -2 -62 -4 -37 -4 -42 11 -16 45 27 34 54 34 85 2z m-1006 -552 c35
-27 37 -41 7 -54 -32 -15 -94 1 -121 31 -44 48 53 68 114 23z"/>
<path d="M2799 2263 l-24 -28 28 24 c25 23 32 31 24 31 -2 0 -14 -12 -28 -27z"/>
<path d="M3450 2265 c13 -14 26 -25 28 -25 3 0 -5 11 -18 25 -13 14 -26 25
-28 25 -3 0 5 -11 18 -25z"/>
<path d="M4200 2283 c-50 -8 -54 -12 -35 -33 23 -25 8 -45 -40 -54 -18 -4 -44
-15 -57 -26 -22 -19 -22 -21 -4 -34 24 -19 12 -36 -25 -36 -17 0 -38 -7 -46
-16 -11 -11 -27 -14 -50 -11 -26 5 -33 2 -33 -10 0 -9 7 -21 17 -28 15 -11 14
-16 -7 -59 -12 -26 -20 -50 -17 -53 3 -3 39 21 79 54 110 89 149 109 172 86 4
-4 19 -7 33 -8 62 -1 22 -58 -48 -69 -48 -7 -77 -21 -67 -31 3 -4 25 -9 47
-12 25 -3 41 -11 41 -19 0 -7 -31 -38 -69 -68 -98 -78 -133 -135 -128 -207 2
-38 17 -44 17 -8 0 40 34 76 88 93 19 7 22 4 22 -23 0 -20 -5 -31 -14 -31 -26
0 -46 -42 -46 -98 0 -79 34 -133 93 -148 l29 -7 -20 40 c-11 21 -24 63 -30 93
-10 61 -4 210 8 210 5 0 33 -39 64 -87 31 -49 56 -84 56 -80 0 4 -18 36 -39
70 l-40 62 21 22 c11 12 39 30 62 39 l42 18 -34 30 c-24 23 -35 42 -39 74 -5
39 -3 46 28 78 26 26 41 34 69 34 50 0 75 -27 59 -64 -14 -30 -24 -32 -67 -10
-67 33 -71 -21 -7 -79 25 -22 45 -46 45 -52 0 -19 44 -54 76 -61 26 -5 38 1
78 35 57 50 84 57 149 42 32 -7 54 -8 60 -2 17 17 -1 40 -37 45 -20 4 -52 8
-71 11 -41 7 -44 17 -10 33 88 40 185 -49 146 -134 -25 -56 -129 -83 -180 -48
-20 14 -19 11 8 -26 39 -54 40 -90 4 -130 -41 -43 -105 -45 -146 -4 -19 18
-28 41 -33 80 l-6 54 -30 -45 c-32 -48 -85 -98 -97 -91 -4 3 9 -44 28 -103
l36 -108 5 67 c5 66 20 100 45 100 7 0 16 -12 20 -27 3 -15 16 -40 28 -57 12
-16 36 -57 52 -90 33 -68 90 -118 156 -138 68 -20 163 14 314 112 41 28 79 50
82 50 18 0 -61 -67 -131 -112 -143 -91 -202 -106 -349 -88 -105 13 -207 44
-345 104 -101 44 -120 49 -177 47 -25 -1 -27 -3 -12 -12 9 -5 17 -17 17 -25 0
-12 -8 -14 -44 -9 -37 6 -47 4 -65 -14 -26 -26 -27 -44 -2 -36 11 3 22 1 26
-5 5 -8 11 -8 20 0 8 6 43 12 78 12 56 0 79 -6 191 -56 206 -91 334 -103 497
-48 110 38 172 78 286 184 28 26 58 48 65 48 7 0 22 -21 32 -47 30 -71 90
-126 167 -151 106 -34 180 -44 305 -41 112 4 123 6 194 40 117 56 199 152 225
263 4 21 -8 8 -45 -47 -52 -79 -136 -152 -215 -188 -43 -20 -95 -25 -95 -9 0
6 -9 6 -26 0 -39 -15 -73 -12 -85 8 -9 14 -23 16 -90 14 -51 -2 -98 2 -133 12
-110 32 -195 116 -196 194 0 42 15 41 30 -2 6 -19 30 -52 54 -74 151 -139 471
-114 652 50 91 84 106 156 55 265 -38 80 -84 113 -167 118 -33 3 -51 2 -41 -1
21 -7 22 -42 1 -72 -15 -22 -15 -23 10 -16 56 14 146 -57 146 -116 0 -49 -52
-90 -115 -90 -28 0 -29 -3 -15 -30 25 -47 -33 -100 -109 -100 -31 0 -49 7 -77
32 -33 29 -36 35 -31 72 5 38 4 41 -18 42 -13 1 -31 8 -40 15 -40 33 -72 65
-77 79 -3 8 -9 12 -13 7 -5 -4 -1 -47 9 -96 14 -68 16 -93 7 -110 -15 -27 -62
-51 -102 -51 -29 0 -31 2 -23 28 4 15 8 43 8 62 1 34 0 35 -32 32 -22 -2 -40
3 -53 14 -27 24 -24 31 16 44 50 17 65 43 65 118 0 75 20 119 82 179 85 82
205 124 362 124 110 0 148 -13 227 -77 26 -21 20 -13 -16 20 -144 134 -327
168 -490 90 -103 -49 -252 -191 -227 -216 30 -30 -1 -88 -47 -88 l-22 0 22
-30 c19 -25 21 -33 11 -55 -9 -19 -19 -25 -43 -25 -18 0 -40 7 -50 16 -17 15
-20 15 -50 -10 -23 -20 -39 -26 -58 -22 -14 3 -20 3 -13 0 6 -3 12 -21 12 -40
0 -32 1 -33 24 -22 14 6 32 8 40 5 48 -19 -16 -82 -147 -148 -121 -60 -178
-65 -241 -22 -41 27 -72 33 -118 20 -23 -6 -27 -3 -37 25 -6 17 -10 33 -8 35
2 2 31 10 63 18 178 46 279 148 320 322 23 96 14 185 -27 274 -18 38 -38 74
-45 80 -21 18 -17 29 12 29 17 0 28 6 31 20 3 11 7 20 9 20 2 0 24 -13 50 -30
79 -50 166 -48 226 7 22 20 39 79 32 110 -5 19 -9 21 -26 12 -11 -6 -42 -9
-68 -7 l-49 3 21 -22 c11 -12 18 -29 15 -37 -8 -20 -82 -39 -122 -32 -34 7
-125 70 -125 86 0 6 -4 10 -10 10 -5 0 -10 -7 -10 -15 0 -7 -6 -18 -14 -22
-12 -7 -13 -16 -4 -49 23 -84 -21 -100 -84 -32 -29 32 -46 42 -64 40 -19 -3
-29 5 -51 42 -31 51 -38 55 -46 26 -6 -25 -25 -25 -102 -1 -66 20 -146 31
-185 24z m171 -123 c22 -22 46 -40 54 -40 31 0 13 -18 -22 -23 -21 -3 -53 -9
-70 -13 -25 -5 -45 0 -83 20 -27 14 -61 26 -75 26 -33 0 -32 14 3 38 38 27 50
30 105 31 44 1 52 -3 88 -39z m212 -71 c40 -49 1 -158 -57 -159 -22 0 -27 4
-22 16 8 20 -19 64 -38 64 -7 0 -19 -7 -26 -15 -19 -23 -50 -19 -50 6 0 27 35
84 63 105 32 23 106 13 130 -17z m182 -121 c10 -24 20 -80 23 -124 6 -112 -21
-194 -88 -267 -70 -77 -198 -139 -251 -122 -27 9 -18 18 46 50 78 40 164 112
197 165 53 86 69 208 42 315 -10 41 12 28 31 -17z m-292 -81 c29 -38 11 -56
-38 -38 -19 7 -44 9 -55 6 -28 -9 -25 11 5 41 31 31 61 28 88 -9z m1037 -532
c16 -19 -2 -43 -47 -62 -41 -17 -64 -17 -88 1 -17 12 -18 16 -5 31 33 40 117
58 140 30z"/>
<path d="M2868 2239 c-40 -23 -17 -134 46 -233 50 -78 72 -124 107 -221 17
-47 35 -85 40 -85 12 0 12 0 -16 104 -13 50 -31 141 -40 201 -8 61 -22 133
-30 162 -21 71 -62 99 -107 72z"/>
<path d="M3322 2235 c-27 -20 -47 -86 -67 -230 -9 -60 -27 -151 -40 -201 -28
-104 -28 -104 -16 -104 5 0 23 38 40 85 35 97 57 143 107 221 65 101 86 212
45 234 -27 14 -43 13 -69 -5z"/>
<path d="M2245 2181 c-7 -12 41 -68 50 -59 4 3 4 16 0 27 -7 24 -41 46 -50 32z"/>
<path d="M3980 2170 c-20 -20 -27 -50 -12 -50 9 0 33 25 46 47 12 21 -13 24
-34 3z"/>
<path d="M2638 2083 c7 -3 16 -2 19 1 4 3 -2 6 -13 5 -11 0 -14 -3 -6 -6z"/>
<path d="M3608 2083 c7 -3 16 -2 19 1 4 3 -2 6 -13 5 -11 0 -14 -3 -6 -6z"/>
<path d="M2795 2040 c10 -11 20 -20 22 -20 2 0 -2 9 -9 20 -7 11 -17 20 -22
20 -5 0 -1 -9 9 -20z"/>
<path d="M3451 2038 c-14 -23 -14 -23 8 -4 22 20 25 26 13 26 -4 0 -13 -10
-21 -22z"/>
<path d="M2545 2019 c-4 -6 -5 -12 -2 -15 2 -3 7 2 10 11 7 17 1 20 -8 4z"/>
<path d="M3706 2017 c3 -10 9 -15 12 -12 3 3 0 11 -7 18 -10 9 -11 8 -5 -6z"/>
<path d="M2644 1965 c-35 -53 12 -95 141 -125 113 -26 151 -49 200 -116 61
-83 77 -68 25 23 -99 172 -312 300 -366 218z"/>
<path d="M3462 1960 c-69 -35 -165 -131 -212 -213 -52 -91 -36 -106 25 -23 49
67 87 90 200 116 129 30 176 72 141 125 -23 35 -77 33 -154 -5z"/>
<path d="M3721 1974 c0 -11 3 -14 6 -6 3 7 2 16 -1 19 -3 4 -6 -2 -5 -13z"/>
<path d="M2431 1954 c0 -11 3 -14 6 -6 3 7 2 16 -1 19 -3 4 -6 -2 -5 -13z"/>
<path d="M3821 1954 c0 -11 3 -14 6 -6 3 7 2 16 -1 19 -3 4 -6 -2 -5 -13z"/>
<path d="M2421 1882 c-7 -12 -18 -75 -26 -138 -19 -150 -28 -184 -77 -272 -22
-41 -37 -76 -34 -80 4 -3 33 22 65 56 54 57 61 69 76 135 20 88 30 263 17 297
l-9 24 -12 -22z"/>
<path d="M2540 1897 c0 -2 15 -16 33 -33 l32 -29 -29 33 c-28 30 -36 37 -36
29z"/>
<path d="M3684 1868 l-29 -33 33 29 c30 28 37 36 29 36 -2 0 -16 -15 -33 -32z"/>
<path d="M3814 1864 c-9 -50 2 -198 22 -284 14 -62 22 -76 75 -132 32 -34 61
-59 65 -56 3 4 -13 39 -35 80 -43 78 -65 158 -76 273 -12 130 -38 189 -51 119z"/>
<path d="M1243 1847 c12 -13 24 -22 26 -20 6 4 -30 43 -40 43 -5 0 2 -10 14
-23z"/>
<path d="M5005 1850 c-26 -28 -15 -31 12 -3 12 13 19 23 14 23 -4 0 -16 -9
-26 -20z"/>
<path d="M1150 1839 c-7 -11 -10 -23 -7 -25 2 -2 9 7 15 21 14 30 7 33 -8 4z"/>
<path d="M5101 1840 c14 -31 19 -36 19 -24 0 6 -7 19 -16 30 -14 18 -14 18 -3
-6z"/>
<path d="M2610 1829 c0 -5 9 -9 20 -9 11 0 20 2 20 4 0 2 -9 6 -20 9 -11 3
-20 1 -20 -4z"/>
<path d="M3625 1830 c-19 -8 -19 -9 3 -9 12 -1 22 4 22 9 0 6 -1 10 -2 9 -2 0
-12 -4 -23 -9z"/>
<path d="M289 1813 c-13 -16 -12 -17 4 -4 9 7 17 15 17 17 0 8 -8 3 -21 -13z"/>
<path d="M754 1798 c-4 -7 -4 -10 1 -6 4 4 15 2 24 -5 14 -11 14 -10 2 6 -16
20 -18 21 -27 5z"/>
<path d="M2544 1788 l-19 -23 23 19 c12 11 22 21 22 23 0 8 -8 2 -26 -19z"/>
<path d="M3705 1790 c10 -11 20 -20 23 -20 3 0 -3 9 -13 20 -10 11 -20 20 -23
20 -3 0 3 -9 13 -20z"/>
<path d="M5479 1793 c-12 -16 -12 -17 2 -6 9 7 20 9 24 5 5 -4 5 -1 1 6 -9 16
-11 15 -27 -5z"/>
<path d="M1261 1784 c0 -11 3 -14 6 -6 3 7 2 16 -1 19 -3 4 -6 -2 -5 -13z"/>
<path d="M4991 1784 c0 -11 3 -14 6 -6 3 7 2 16 -1 19 -3 4 -6 -2 -5 -13z"/>
<path d="M5096 1783 c-6 -14 -5 -15 5 -6 7 7 10 15 7 18 -3 3 -9 -2 -12 -12z"/>
<path d="M1108 1783 c6 -2 18 -2 25 0 6 3 1 5 -13 5 -14 0 -19 -2 -12 -5z"/>
<path d="M5128 1783 c6 -2 18 -2 25 0 6 3 1 5 -13 5 -14 0 -19 -2 -12 -5z"/>
<path d="M1373 1764 c5 -7 12 -25 17 -41 7 -23 8 -24 9 -7 1 12 -7 30 -16 41
-10 10 -14 13 -10 7z"/>
<path d="M4876 1758 c-9 -12 -16 -32 -15 -43 1 -15 3 -13 9 8 5 16 14 35 21
43 6 8 9 14 6 14 -3 0 -13 -10 -21 -22z"/>
<path d="M759 1742 c-3 -20 -2 -29 4 -23 5 5 7 19 5 32 -3 20 -5 19 -9 -9z"/>
<path d="M791 1754 c0 -11 3 -14 6 -6 3 7 2 16 -1 19 -3 4 -6 -2 -5 -13z"/>
<path d="M5461 1754 c0 -11 3 -14 6 -6 3 7 2 16 -1 19 -3 4 -6 -2 -5 -13z"/>
<path d="M5490 1746 c0 -14 4 -27 8 -30 5 -3 6 8 4 25 -5 35 -12 38 -12 5z"/>
<path d="M680 1746 c0 -3 9 -10 20 -16 11 -6 20 -8 20 -6 0 3 -9 10 -20 16
-11 6 -20 8 -20 6z"/>
<path d="M2624 1739 c-34 -10 -47 -28 -35 -48 5 -8 48 -16 107 -21 113 -10
190 -31 245 -66 49 -30 59 -15 17 26 -44 42 -134 87 -210 105 -71 17 -80 17
-124 4z"/>
<path d="M3506 1734 c-70 -17 -159 -63 -204 -105 -42 -40 -32 -55 17 -25 55
35 132 56 245 66 97 8 120 18 109 46 -5 14 -65 35 -93 33 -8 0 -41 -7 -74 -15z"/>
<path d="M5554 1734 c-18 -14 -18 -15 4 -4 12 6 22 13 22 15 0 8 -5 6 -26 -11z"/>
<path d="M1224 1715 c-13 -33 25 -70 48 -47 8 8 6 18 -6 36 -19 29 -34 33 -42
11z"/>
<path d="M4994 1705 c-12 -18 -14 -29 -7 -36 17 -17 55 8 51 33 -4 32 -24 33
-44 3z"/>
<path d="M792 1700 c0 -14 2 -19 5 -12 2 6 2 18 0 25 -3 6 -5 1 -5 -13z"/>
<path d="M5462 1700 c0 -14 2 -19 5 -12 2 6 2 18 0 25 -3 6 -5 1 -5 -13z"/>
<path d="M2467 1627 c-8 -47 -26 -111 -39 -144 l-24 -59 108 46 c102 42 107
45 77 51 -51 11 -78 46 -90 119 -6 36 -12 66 -13 68 -2 1 -10 -35 -19 -81z
m64 -119 c-9 -10 -84 -40 -78 -31 3 4 10 28 17 52 l12 44 27 -29 c15 -16 25
-32 22 -36z"/>
<path d="M3765 1668 c-12 -84 -16 -96 -40 -118 -13 -12 -38 -25 -55 -29 -28
-6 -23 -9 78 -51 l108 -46 -24 59 c-13 32 -30 95 -39 140 -8 45 -16 83 -18 85
-2 2 -6 -16 -10 -40z m30 -155 c8 -38 -1 -41 -45 -18 l-28 15 26 30 c29 32 35
29 47 -27z"/>
<path d="M2520 1691 c0 -6 4 -13 10 -16 6 -3 7 1 4 9 -7 18 -14 21 -14 7z"/>
<path d="M3726 1683 c-6 -14 -5 -15 5 -6 7 7 10 15 7 18 -3 3 -9 -2 -12 -12z"/>
<path d="M1369 1673 c-13 -16 -12 -17 4 -4 16 13 21 21 13 21 -2 0 -10 -8 -17
-17z"/>
<path d="M4870 1686 c0 -2 8 -10 18 -17 15 -13 16 -12 3 4 -13 16 -21 21 -21
13z"/>
<path d="M767 1637 l-17 -32 20 24 c17 20 26 41 18 41 -2 0 -11 -15 -21 -33z"/>
<path d="M5470 1663 c0 -6 9 -21 21 -34 l20 -24 -17 30 c-24 39 -24 40 -24 28z"/>
<path d="M514 1645 c-9 -21 15 -47 40 -43 24 4 34 37 14 49 -21 14 -48 10 -54
-6z"/>
<path d="M1408 1622 c3 -30 -2 -45 -22 -69 -14 -17 -26 -36 -26 -41 0 -27 -25
-62 -44 -62 -21 -1 -21 -1 -1 -16 11 -9 61 -36 110 -61 106 -52 153 -54 219
-10 21 15 51 27 65 27 19 1 13 5 -24 18 -111 38 -202 115 -247 207 -12 25 -25
45 -28 45 -3 0 -4 -17 -2 -38z m113 -153 c19 -14 53 -36 77 -48 48 -25 46 -39
-9 -61 -24 -10 -38 -10 -72 0 -38 11 -113 46 -144 67 -16 11 2 64 36 110 l24
32 27 -37 c14 -20 42 -49 61 -63z"/>
<path d="M2534 1646 c-10 -27 16 -73 48 -87 22 -9 59 -10 156 -2 106 9 134 8
167 -4 22 -8 54 -16 72 -17 42 -3 56 -17 93 -84 23 -42 27 -58 18 -64 -27 -17
-50 -6 -104 47 -62 61 -97 75 -188 75 -80 0 -158 -22 -305 -87 -152 -66 -167
-71 -156 -52 5 8 -2 5 -16 -6 -13 -11 -26 -21 -29 -23 -3 -2 6 -1 20 3 16 3
39 -2 63 -14 20 -10 37 -16 37 -11 0 16 130 72 191 82 56 10 70 9 98 -5 33
-16 34 -16 63 8 75 63 178 28 178 -61 0 -34 -5 -47 -26 -63 -30 -23 -64 -27
-82 -9 -17 17 -15 68 5 90 15 17 15 18 -10 18 -38 0 -70 -45 -63 -89 6 -38 39
-78 74 -92 36 -14 101 8 140 47 31 31 32 35 18 50 -20 20 -20 27 2 53 15 19
21 20 52 11 19 -5 55 -10 80 -10 25 0 61 5 80 10 31 9 37 8 53 -11 21 -26 21
-33 1 -53 -14 -15 -13 -19 18 -50 39 -39 104 -61 140 -47 35 14 68 54 74 92 7
44 -25 89 -63 89 -25 0 -25 -1 -10 -18 20 -22 22 -73 5 -90 -35 -35 -108 8
-108 64 0 46 14 70 52 90 38 20 87 12 126 -21 29 -24 30 -24 63 -8 28 14 42
15 98 5 61 -10 191 -66 191 -82 0 -5 17 1 38 11 22 12 47 17 62 14 23 -5 24
-4 5 7 -11 6 -29 13 -40 14 -11 1 -77 26 -146 57 -147 65 -224 87 -305 87 -91
0 -126 -14 -188 -75 -54 -53 -77 -64 -104 -47 -9 6 -5 22 18 64 37 67 51 81
93 84 18 1 50 9 73 17 35 14 58 14 166 5 99 -9 131 -9 156 1 32 14 58 60 48
87 -5 13 -10 13 -36 -6 -23 -17 -63 -26 -163 -40 -79 -10 -154 -27 -185 -40
-49 -21 -53 -21 -74 -6 -78 57 -94 67 -115 72 -13 4 -33 4 -46 0 -21 -5 -37
-15 -115 -72 -21 -15 -25 -15 -74 6 -31 13 -105 29 -184 40 -101 13 -139 23
-163 39 -27 20 -32 20 -37 7z"/>
<path d="M4822 1615 c-45 -92 -136 -169 -247 -207 -37 -13 -43 -17 -24 -18 14
0 44 -12 65 -27 60 -43 126 -38 229 14 44 23 89 48 100 57 20 15 20 15 -1 16
-19 0 -44 35 -44 62 0 5 -12 24 -26 41 -20 24 -25 39 -22 69 2 21 1 38 -2 38
-3 0 -16 -20 -28 -45z m61 -127 c2 -13 8 -30 11 -39 6 -13 -8 -25 -64 -53 -91
-45 -129 -52 -168 -32 -47 24 -47 33 0 57 59 30 110 72 138 113 l24 34 27 -29
c15 -16 29 -39 32 -51z"/>
<path d="M5692 1651 c-20 -12 -10 -45 14 -49 25 -4 49 22 40 43 -6 16 -33 20
-54 6z"/>
<path d="M1369 1618 c4 -28 6 -29 9 -9 2 13 0 27 -5 32 -6 6 -7 -3 -4 -23z"/>
<path d="M4884 1636 c-3 -8 -4 -23 -2 -33 3 -11 6 -6 9 15 6 34 2 42 -7 18z"/>
<path d="M6022 1590 c0 -14 2 -19 5 -12 2 6 2 18 0 25 -3 6 -5 1 -5 -13z"/>
<path d="M231 1584 c0 -11 3 -14 6 -6 3 7 2 16 -1 19 -3 4 -6 -2 -5 -13z"/>
<path d="M682 1572 c-17 -17 -29 -22 -45 -17 -42 12 -52 10 -55 -12 -7 -45 87
-73 121 -35 18 19 22 59 9 77 -4 6 -16 1 -30 -13z"/>
<path d="M5546 1583 c-11 -28 -6 -60 12 -76 39 -35 126 -8 120 36 -3 22 -13
24 -55 12 -16 -5 -29 0 -47 18 -20 20 -26 22 -30 10z"/>
<path d="M740 1571 c0 -10 39 -46 43 -40 2 2 -7 14 -20 26 -13 12 -23 19 -23
14z"/>
<path d="M5493 1553 c-12 -13 -19 -23 -14 -23 10 0 46 39 40 43 -2 2 -14 -7
-26 -20z"/>
<path d="M241 1540 c0 -8 4 -22 9 -30 12 -18 12 -2 0 25 -6 13 -9 15 -9 5z"/>
<path d="M6011 1543 c-1 -6 -4 -20 -7 -30 -5 -17 -5 -17 6 0 6 10 9 23 6 30
-3 9 -5 9 -5 0z"/>
<path d="M3005 1460 c21 -22 40 -40 42 -40 2 0 -6 18 -17 40 -14 28 -27 40
-42 40 -20 0 -18 -4 17 -40z"/>
<path d="M3229 1458 l-21 -43 41 40 c23 21 41 40 41 42 0 2 -9 3 -20 3 -13 0
-27 -14 -41 -42z"/>
<path d="M2271 1463 c-10 -26 -10 -27 4 -9 8 11 15 23 15 28 0 15 -7 8 -19
-19z"/>
<path d="M3971 1485 c0 -5 6 -21 14 -35 8 -14 14 -20 14 -15 0 6 -6 21 -14 35
-8 14 -14 21 -14 15z"/>
<path d="M2712 1305 c0 -16 2 -22 5 -12 2 9 2 23 0 30 -3 6 -5 -1 -5 -18z"/>
<path d="M3542 1310 c0 -14 2 -19 5 -12 2 6 2 18 0 25 -3 6 -5 1 -5 -13z"/>
<path d="M3060 1254 c0 -21 -60 -67 -110 -84 -49 -17 -50 -17 -21 -23 32 -7
71 2 119 27 30 15 34 15 57 0 23 -15 27 -15 50 0 23 15 27 15 57 0 48 -25 87
-34 119 -27 29 6 28 6 -21 23 -50 17 -110 63 -110 84 0 7 -27 11 -70 11 -43 0
-70 -4 -70 -11z"/>
<path d="M2750 1215 c13 -14 26 -25 28 -25 3 0 -5 11 -18 25 -13 14 -26 25
-28 25 -3 0 5 -11 18 -25z"/>
<path d="M3499 1213 l-24 -28 28 24 c25 23 32 31 24 31 -2 0 -14 -12 -28 -27z"/>
<path d="M2320 1186 c0 -2 8 -10 18 -17 15 -13 16 -12 3 4 -13 16 -21 21 -21
13z"/>
<path d="M3919 1173 c-13 -16 -12 -17 4 -4 9 7 17 15 17 17 0 8 -8 3 -21 -13z"/>
</g>
</svg>
